<svg width="14" height="11" viewBox="0 0 20 17" fill="none" xmlns="http://www.w3.org/2000/svg">
<path fill-rule="evenodd" clip-rule="evenodd" d="M0 8.5C0 8.17801 0.131682 7.86921 0.366076 7.64153C0.60047 7.41384 0.918377 7.28593 1.24986 7.28593H15.7307L10.3638 2.07516C10.1292 1.84719 9.9973 1.538 9.9973 1.2156C9.9973 0.893203 10.1292 0.584011 10.3638 0.356041C10.5985 0.128072 10.9168 0 11.2487 0C11.5806 0 11.899 0.128072 12.1336 0.356041L19.6328 7.64044C19.7492 7.75322 19.8415 7.88719 19.9046 8.03469C19.9676 8.18219 20 8.34031 20 8.5C20 8.65969 19.9676 8.81781 19.9046 8.96531C19.8415 9.11281 19.7492 9.24678 19.6328 9.35956L12.1336 16.644C11.899 16.8719 11.5806 17 11.2487 17C10.9168 17 10.5985 16.8719 10.3638 16.644C10.1292 16.416 9.9973 16.1068 9.9973 15.7844C9.9973 15.462 10.1292 15.1528 10.3638 14.9248L15.7307 9.71407H1.24986C0.918377 9.71407 0.60047 9.58616 0.366076 9.35848C0.131682 9.13079 0 8.82199 0 8.5Z" fill="#DB4403"/>
</svg>
