<svg width="27" height="26" viewBox="0 0 27 26" fill="none" xmlns="http://www.w3.org/2000/svg">
<path d="M19.1437 0H8.24427C3.50991 0 0.6875 2.821 0.6875 7.553V18.434C0.6875 23.179 3.50991 26 8.24427 26H19.1307C23.865 26 26.6875 23.179 26.6875 18.447V7.553C26.7005 2.821 23.8781 0 19.1437 0ZM20.1972 19.825H7.19074C6.65747 19.825 6.21525 19.383 6.21525 18.85C6.21525 18.317 6.65747 17.875 7.19074 17.875H20.1972C20.7305 17.875 21.1727 18.317 21.1727 18.85C21.1727 19.383 20.7305 19.825 20.1972 19.825ZM20.1972 13.975H7.19074C6.65747 13.975 6.21525 13.533 6.21525 13C6.21525 12.467 6.65747 12.025 7.19074 12.025H20.1972C20.7305 12.025 21.1727 12.467 21.1727 13C21.1727 13.533 20.7305 13.975 20.1972 13.975ZM20.1972 8.125H7.19074C6.65747 8.125 6.21525 7.683 6.21525 7.15C6.21525 6.617 6.65747 6.175 7.19074 6.175H20.1972C20.7305 6.175 21.1727 6.617 21.1727 7.15C21.1727 7.683 20.7305 8.125 20.1972 8.125Z" fill="white"/>
</svg>
