<svg width="222" height="222" viewBox="0 0 407 166" fill="none" xmlns="http://www.w3.org/2000/svg">
<rect x="19" y="32" width="388" height="103" rx="51.5" fill="#DB4403"/>
<circle cx="83" cy="83" r="83" fill="#E04403"/>
<path d="M65.5 89.75H76C75.9973 90.6774 75.6276 91.5661 74.9719 92.2219C74.3161 92.8776 73.4274 93.2473 72.5 93.25H69C68.0726 93.2473 67.1839 92.8776 66.5281 92.2219C65.8724 91.5661 65.5027 90.6774 65.5 89.75ZM125 74C125 106.015 85.713 135.421 84.0399 136.657C83.7389 136.88 83.3744 137 83 137C82.6256 137 82.2611 136.88 81.9601 136.657C80.287 135.421 41 106.015 41 74C41 62.8609 45.425 52.178 53.3015 44.3015C61.178 36.425 71.8609 32 83 32C94.1391 32 104.822 36.425 112.698 44.3015C120.575 52.178 125 62.8609 125 74ZM114.5 74C114.5 67.7699 112.653 61.6797 109.191 56.4995C105.73 51.3194 100.81 47.282 95.0545 44.8978C89.2987 42.5136 82.9651 41.8898 76.8547 43.1053C70.7443 44.3207 65.1315 47.3208 60.7261 51.7261C56.3208 56.1315 53.3207 61.7443 52.1053 67.8547C50.8898 73.9651 51.5136 80.2987 53.8978 86.0545C56.282 91.8104 60.3194 96.73 65.4995 100.191C70.6797 103.653 76.7699 105.5 83 105.5C91.3514 105.491 99.3581 102.169 105.263 96.2634C111.169 90.3581 114.491 82.3514 114.5 74ZM93.5 93.25H97C97.9274 93.2473 98.8161 92.8776 99.4719 92.2219C100.128 91.5661 100.497 90.6774 100.5 89.75H90C90.0027 90.6774 90.3724 91.5661 91.0281 92.2219C91.6839 92.8776 92.5726 93.2473 93.5 93.25ZM104 74V84.5C103.999 84.9637 103.814 85.408 103.486 85.7359C103.158 86.0638 102.714 86.2486 102.25 86.25H63.75C63.2863 86.2486 62.842 86.0638 62.5141 85.7359C62.1862 85.408 62.0014 84.9637 62 84.5V74C62.006 72.8598 62.3828 71.7526 63.0735 70.8455C63.7642 69.9383 64.7314 69.2806 65.8289 68.9715L68.3899 58.7268C68.6725 57.5903 69.3276 56.5811 70.2506 55.8603C71.1737 55.1396 72.3115 54.7487 73.4827 54.75H92.5174C93.6885 54.7487 94.8264 55.1396 95.7494 55.8603C96.6725 56.5811 97.3276 57.5903 97.6102 58.7268L100.171 68.9715C101.269 69.2806 102.236 69.9383 102.927 70.8455C103.617 71.7526 103.994 72.8598 104 74ZM69.4907 68.75H96.5093L94.2161 59.5762C94.1216 59.1972 93.903 58.8608 93.5952 58.6204C93.2873 58.3801 92.9079 58.2497 92.5173 58.25H73.4826C73.092 58.2497 72.7126 58.3801 72.4048 58.6204C72.0969 58.8608 71.8783 59.1972 71.7839 59.5762L69.4907 68.75ZM76 77.5C75.9986 77.0363 75.8138 76.592 75.4859 76.2641C75.158 75.9362 74.7137 75.7514 74.25 75.75H70.75C70.2859 75.75 69.8408 75.9344 69.5126 76.2626C69.1844 76.5908 69 77.0359 69 77.5C69 77.9641 69.1844 78.4092 69.5126 78.7374C69.8408 79.0656 70.2859 79.25 70.75 79.25H74.25C74.7137 79.2486 75.158 79.0638 75.4859 78.7359C75.8138 78.408 75.9986 77.9637 76 77.5ZM97 77.5C96.9986 77.0363 96.8138 76.592 96.4859 76.2641C96.158 75.9362 95.7137 75.7514 95.25 75.75H91.75C91.2859 75.75 90.8408 75.9344 90.5126 76.2626C90.1844 76.5908 90 77.0359 90 77.5C90 77.9641 90.1844 78.4092 90.5126 78.7374C90.8408 79.0656 91.2859 79.25 91.75 79.25H95.25C95.7137 79.2486 96.158 79.0638 96.4859 78.7359C96.8138 78.408 96.9986 77.9637 97 77.5Z" fill="#F7F9FB"/>
<path d="M174.344 91V68.6562H184.344C188.906 68.6562 191.188 70.7552 191.188 74.9531C191.188 79.5052 188.068 82.2604 181.828 83.2188L181.234 79.5312C184.984 78.8542 186.859 77.3698 186.859 75.0781C186.859 73.224 185.932 72.2969 184.078 72.2969H178.484V91H174.344ZM200.469 74.5938C205.448 74.5938 207.938 77.1354 207.938 82.2188C207.938 82.8958 207.891 83.5729 207.797 84.25H196.906C196.906 86.5625 198.604 87.7188 202 87.7188C203.656 87.7188 205.312 87.5625 206.969 87.25V90.5312C205.521 90.8438 203.76 91 201.688 91C195.74 91 192.766 88.2031 192.766 82.6094C192.766 77.2656 195.333 74.5938 200.469 74.5938ZM196.906 81.375H203.906V81.25C203.906 78.9792 202.76 77.8438 200.469 77.8438C198.281 77.8438 197.094 79.0208 196.906 81.375ZM221.438 78.875C220.583 78.3125 219.51 78.0312 218.219 78.0312C215.646 78.0312 214.359 79.474 214.359 82.3594C214.359 85.7865 215.698 87.5 218.375 87.5C219.458 87.5 220.479 87.349 221.438 87.0469V78.875ZM225.578 90.0156C223.068 90.6719 220.615 91 218.219 91C212.917 91 210.266 88.1562 210.266 82.4688C210.266 77.2188 212.859 74.5938 218.047 74.5938C219.151 74.5938 220.281 74.8542 221.438 75.375V68.6562H225.578V90.0156ZM233.625 68.6562V71.9375H229.484V68.6562H233.625ZM233.625 74.5938V91H229.484V74.5938H233.625ZM237.547 91V74.5938H240.75L241.266 76.6875C242.703 75.2917 244.224 74.5938 245.828 74.5938V77.9375C244.286 77.9375 242.906 78.5781 241.688 79.8594V91H237.547ZM255.203 90.0625V86.3125C257.443 87.1458 259.974 87.5625 262.797 87.5625C266.224 87.5625 267.938 86.4167 267.938 84.125C267.938 82.4583 266.885 81.625 264.781 81.625H261.281C256.708 81.625 254.422 79.5417 254.422 75.375C254.422 70.7917 257.677 68.5 264.188 68.5C266.688 68.5 269.057 68.8646 271.297 69.5938V73.3438C269.057 72.5104 266.688 72.0938 264.188 72.0938C260.438 72.0938 258.562 73.1875 258.562 75.375C258.562 77.0417 259.469 77.875 261.281 77.875H264.781C269.646 77.875 272.078 79.9583 272.078 84.125C272.078 88.8125 268.984 91.1562 262.797 91.1562C259.974 91.1562 257.443 90.7917 255.203 90.0625ZM282.125 74.5938C287.104 74.5938 289.594 77.1354 289.594 82.2188C289.594 82.8958 289.547 83.5729 289.453 84.25H278.562C278.562 86.5625 280.26 87.7188 283.656 87.7188C285.312 87.7188 286.969 87.5625 288.625 87.25V90.5312C287.177 90.8438 285.417 91 283.344 91C277.396 91 274.422 88.2031 274.422 82.6094C274.422 77.2656 276.99 74.5938 282.125 74.5938ZM278.562 81.375H285.562V81.25C285.562 78.9792 284.417 77.8438 282.125 77.8438C279.938 77.8438 278.75 79.0208 278.562 81.375ZM292.703 91V74.5938H295.906L296.422 76.6875C297.859 75.2917 299.38 74.5938 300.984 74.5938V77.9375C299.443 77.9375 298.062 78.5781 296.844 79.8594V91H292.703ZM301.375 74.5938H305.75L309.734 86.0625L313.875 74.5938H318.25L311.578 91H307.641L301.375 74.5938ZM324.344 68.6562V71.9375H320.203V68.6562H324.344ZM324.344 74.5938V91H320.203V74.5938H324.344ZM340.375 90.5312C339.021 90.8438 337.615 91 336.156 91C330.323 91 327.406 88.1615 327.406 82.4844C327.406 77.224 330.323 74.5938 336.156 74.5938C337.615 74.5938 339.021 74.75 340.375 75.0625V78.3438C339.021 78.0312 337.719 77.875 336.469 77.875C333.188 77.875 331.547 79.4115 331.547 82.4844C331.547 85.974 333.188 87.7188 336.469 87.7188C337.719 87.7188 339.021 87.5625 340.375 87.25V90.5312ZM347.25 68.6562V71.9375H343.109V68.6562H347.25ZM347.25 74.5938V91H343.109V74.5938H347.25ZM354.531 82.7344C354.531 86.1615 355.859 87.875 358.516 87.875C361.172 87.875 362.5 86.1615 362.5 82.7344C362.5 79.3906 361.172 77.7188 358.516 77.7188C355.859 77.7188 354.531 79.3906 354.531 82.7344ZM350.391 82.7969C350.391 77.2969 353.099 74.5469 358.516 74.5469C363.932 74.5469 366.641 77.2969 366.641 82.7969C366.641 88.2865 363.932 91.0312 358.516 91.0312C353.12 91.0312 350.411 88.2865 350.391 82.7969Z" fill="white"/>
</svg>
