<svg width="136" height="39" viewBox="0 0 136 39" fill="none" xmlns="http://www.w3.org/2000/svg">
<path d="M134.684 34.5023C134.684 36.5806 132.965 38.2641 130.839 38.2641H5.03292C2.90822 38.2641 1.18359 36.5806 1.18359 34.5023V4.50262C1.18359 2.42524 2.90822 0.73584 5.03292 0.73584H130.838C132.965 0.73584 134.683 2.42524 134.683 4.50262L134.684 34.5023Z" fill="#232323"/>
<path d="M130.434 0.781219C132.749 0.781219 134.632 2.61788 134.632 4.875V34.125C134.632 36.3821 132.749 38.2188 130.434 38.2188H5.43359C3.11859 38.2188 1.23484 36.3821 1.23484 34.125V4.875C1.23484 2.61788 3.11859 0.781219 5.43359 0.781219H130.434ZM130.434 2.06113e-06H5.43359C2.68484 2.06113e-06 0.433594 2.19497 0.433594 4.875V34.125C0.433594 36.805 2.68484 39 5.43359 39H130.434C133.182 39 135.434 36.805 135.434 34.125V4.875C135.434 2.19497 133.182 2.06113e-06 130.434 2.06113e-06Z" fill="#A6A6A6"/>
<path d="M30.5588 19.2898C30.5298 16.1474 33.1978 14.6186 33.3198 14.5474C31.8088 12.3995 29.4668 12.106 28.6438 12.0826C26.6768 11.8808 24.7688 13.2302 23.7668 13.2302C22.7448 13.2302 21.2018 12.1021 19.5388 12.1353C17.3988 12.1675 15.3968 13.3755 14.2988 15.2514C12.0328 19.0763 13.7228 24.6972 15.8938 27.7889C16.9798 29.3031 18.2488 30.9937 19.9098 30.9343C21.5348 30.8689 22.1418 29.9242 24.1028 29.9242C26.0458 29.9242 26.6158 30.9343 28.3098 30.8962C30.0538 30.8689 31.1518 29.3752 32.1998 27.8474C33.4548 26.1119 33.9588 24.4027 33.9788 24.315C33.9378 24.3013 30.5918 23.0563 30.5588 19.2898Z" fill="white"/>
<path d="M27.3588 10.0488C28.2328 8.98311 28.8308 7.53329 28.6648 6.06201C27.3998 6.11661 25.8178 6.91514 24.9068 7.95741C24.1008 8.87586 23.3808 10.3813 23.5668 11.797C24.9878 11.9003 26.4468 11.0979 27.3588 10.0488Z" fill="white"/>
<path d="M54.0807 30.7163H51.8097L50.5657 26.905H46.2417L45.0567 30.7163H42.8457L47.1297 17.741H49.7757L54.0807 30.7163ZM50.1907 25.306L49.0657 21.9179C48.9467 21.5717 48.7237 20.7566 48.3947 19.4735H48.3547C48.2237 20.0254 48.0127 20.8405 47.7227 21.9179L46.6177 25.306H50.1907Z" fill="white"/>
<path d="M65.0984 25.9233C65.0984 27.5145 64.6574 28.7722 63.7754 29.6956C62.9854 30.5175 62.0044 30.928 60.8334 30.928C59.5694 30.928 58.6614 30.4853 58.1084 29.6H58.0684V34.5286H55.9364V24.4403C55.9364 23.44 55.9094 22.4133 55.8574 21.3603H57.7324L57.8514 22.8433H57.8914C58.6024 21.7259 59.6814 21.1682 61.1294 21.1682C62.2614 21.1682 63.2064 21.604 63.9624 22.4767C64.7204 23.3503 65.0984 24.4988 65.0984 25.9233ZM62.9264 25.9993C62.9264 25.0887 62.7164 24.3379 62.2944 23.7471C61.8334 23.1309 61.2144 22.8228 60.4384 22.8228C59.9124 22.8228 59.4344 22.9944 59.0074 23.3327C58.5794 23.674 58.2994 24.1195 58.1684 24.6714C58.1024 24.9288 58.0694 25.1394 58.0694 25.3051V26.8651C58.0694 27.5457 58.2834 28.12 58.7114 28.5889C59.1394 29.0579 59.6954 29.2919 60.3794 29.2919C61.1824 29.2919 61.8074 28.9897 62.2544 28.3871C62.7024 27.7836 62.9264 26.988 62.9264 25.9993Z" fill="white"/>
<path d="M76.1326 25.9233C76.1326 27.5145 75.6916 28.7722 74.8086 29.6956C74.0196 30.5175 73.0386 30.928 71.8676 30.928C70.6036 30.928 69.6956 30.4853 69.1436 29.6H69.1036V34.5286H66.9716V24.4403C66.9716 23.44 66.9446 22.4133 66.8926 21.3603H68.7676L68.8866 22.8433H68.9266C69.6366 21.7259 70.7156 21.1682 72.1646 21.1682C73.2956 21.1682 74.2406 21.604 74.9986 22.4767C75.7536 23.3503 76.1326 24.4988 76.1326 25.9233ZM73.9606 25.9993C73.9606 25.0887 73.7496 24.3379 73.3276 23.7471C72.8666 23.1309 72.2496 22.8228 71.4726 22.8228C70.9456 22.8228 70.4686 22.9944 70.0406 23.3327C69.6126 23.674 69.3336 24.1195 69.2026 24.6714C69.1376 24.9288 69.1036 25.1394 69.1036 25.3051V26.8651C69.1036 27.5457 69.3176 28.12 69.7436 28.5889C70.1716 29.0569 70.7276 29.2919 71.4136 29.2919C72.2166 29.2919 72.8416 28.9897 73.2886 28.3871C73.7366 27.7836 73.9606 26.988 73.9606 25.9993Z" fill="white"/>
<path d="M88.4748 27.0778C88.4748 28.1815 88.0818 29.0794 87.2928 29.7727C86.4258 30.5302 85.2188 30.9085 83.6678 30.9085C82.2358 30.9085 81.0877 30.6394 80.2188 30.1003L80.7128 28.3677C81.6488 28.9195 82.6758 29.1964 83.7948 29.1964C84.5978 29.1964 85.2228 29.019 85.6718 28.666C86.1188 28.3131 86.3417 27.8392 86.3417 27.2484C86.3417 26.7219 86.1577 26.2783 85.7887 25.9185C85.4217 25.5587 84.8088 25.2243 83.9528 24.9152C81.6228 24.0679 80.4588 22.8268 80.4588 21.1946C80.4588 20.128 80.8668 19.2534 81.6838 18.5728C82.4978 17.8913 83.5837 17.551 84.9417 17.551C86.1527 17.551 87.1588 17.7568 87.9618 18.1672L87.4287 19.8618C86.6787 19.464 85.8308 19.2651 84.8818 19.2651C84.1318 19.2651 83.5458 19.4455 83.1258 19.8043C82.7708 20.125 82.5928 20.516 82.5928 20.9791C82.5928 21.492 82.7957 21.9161 83.2037 22.2496C83.5587 22.5577 84.2038 22.8911 85.1398 23.2509C86.2848 23.7004 87.1258 24.2259 87.6668 24.8284C88.2058 25.429 88.4748 26.1808 88.4748 27.0778Z" fill="white"/>
<path d="M95.5237 22.92H93.1737V27.4626C93.1737 28.6179 93.5877 29.1951 94.4177 29.1951C94.7987 29.1951 95.1147 29.163 95.3647 29.0986L95.4237 30.6771C95.0037 30.8302 94.4507 30.9072 93.7657 30.9072C92.9237 30.9072 92.2657 30.6567 91.7907 30.1565C91.3177 29.6553 91.0797 28.8149 91.0797 27.6342V22.9181H89.6797V21.3581H91.0797V19.645L93.1737 19.0288V21.3581H95.5237V22.92Z" fill="white"/>
<path d="M106.126 25.9611C106.126 27.3992 105.704 28.5799 104.862 29.5032C103.979 30.4539 102.807 30.9277 101.346 30.9277C99.9376 30.9277 98.8166 30.4724 97.9806 29.5617C97.1446 28.6511 96.7266 27.5016 96.7266 26.1161C96.7266 24.6663 97.1566 23.4787 98.0196 22.5554C98.8806 21.6311 100.043 21.1689 101.504 21.1689C102.912 21.1689 104.045 21.6243 104.9 22.5359C105.718 23.4202 106.126 24.5619 106.126 25.9611ZM103.914 26.0283C103.914 25.1655 103.725 24.4254 103.342 23.8083C102.895 23.0614 102.256 22.689 101.428 22.689C100.571 22.689 99.9196 23.0624 99.4726 23.8083C99.0896 24.4264 98.9006 25.1781 98.9006 26.0673C98.9006 26.9302 99.0896 27.6702 99.4726 28.2864C99.9336 29.0333 100.578 29.4057 101.409 29.4057C102.223 29.4057 102.862 29.0255 103.323 28.2669C103.716 27.6381 103.914 26.8902 103.914 26.0283Z" fill="white"/>
<path d="M113.056 23.1884C112.845 23.1504 112.62 23.1309 112.384 23.1309C111.634 23.1309 111.054 23.4068 110.646 23.9596C110.291 24.4471 110.113 25.0633 110.113 25.8073V30.7164H107.982L108.002 24.3067C108.002 23.2284 107.975 22.2466 107.922 21.3613H109.779L109.857 23.1514H109.916C110.141 22.5361 110.496 22.0408 110.982 21.6694C111.457 21.3349 111.97 21.1682 112.523 21.1682C112.72 21.1682 112.898 21.1819 113.056 21.2062V23.1884Z" fill="white"/>
<path d="M122.59 25.5957C122.59 25.9681 122.565 26.2821 122.512 26.5385H116.116C116.141 27.4628 116.45 28.1697 117.044 28.6572C117.583 29.093 118.28 29.3114 119.136 29.3114C120.083 29.3114 120.947 29.1642 121.724 28.8687L122.058 30.3117C121.15 30.6978 120.078 30.8899 118.841 30.8899C117.353 30.8899 116.185 30.4629 115.336 29.6097C114.488 28.7566 114.062 27.611 114.062 26.1738C114.062 24.763 114.458 23.5881 115.249 22.6512C116.077 21.6508 117.195 21.1506 118.603 21.1506C119.986 21.1506 121.033 21.6508 121.744 22.6512C122.307 23.4458 122.59 24.4286 122.59 25.5957ZM120.557 25.0565C120.571 24.4403 120.432 23.9079 120.143 23.4585C119.774 22.8803 119.207 22.5917 118.444 22.5917C117.747 22.5917 117.181 22.8735 116.748 23.439C116.393 23.8884 116.181 24.4276 116.116 25.0555H120.557V25.0565Z" fill="white"/>
<path d="M49.4834 9.75873C49.4834 10.9063 49.1304 11.7702 48.4254 12.3503C47.7724 12.8856 46.8444 13.1537 45.6424 13.1537C45.0464 13.1537 44.5364 13.1283 44.1094 13.0776V6.8074C44.6664 6.71965 45.2664 6.6748 45.9144 6.6748C47.0594 6.6748 47.9224 6.91758 48.5044 7.40313C49.1564 7.95205 49.4834 8.73693 49.4834 9.75873ZM48.3784 9.787C48.3784 9.04308 48.1764 8.4727 47.7724 8.0749C47.3684 7.67808 46.7784 7.47918 46.0014 7.47918C45.6714 7.47918 45.3904 7.50063 45.1574 7.54548V12.3123C45.2864 12.3318 45.5224 12.3405 45.8654 12.3405C46.6674 12.3405 47.2864 12.1231 47.7224 11.6883C48.1584 11.2534 48.3784 10.6197 48.3784 9.787Z" fill="white"/>
<path d="M55.3416 10.7611C55.3416 11.468 55.1346 12.0471 54.7206 12.5015C54.2866 12.9685 53.7116 13.2015 52.9936 13.2015C52.3016 13.2015 51.7506 12.9783 51.3396 12.5298C50.9296 12.0822 50.7246 11.5177 50.7246 10.8372C50.7246 10.1254 50.9356 9.5414 51.3596 9.08802C51.7836 8.63465 52.3536 8.40747 53.0716 8.40747C53.7636 8.40747 54.3196 8.63075 54.7406 9.07827C55.1406 9.51312 55.3416 10.0747 55.3416 10.7611ZM54.2546 10.7943C54.2546 10.3701 54.1606 10.0065 53.9736 9.70324C53.7536 9.33665 53.4406 9.15334 53.0336 9.15334C52.6126 9.15334 52.2926 9.33665 52.0726 9.70324C51.8846 10.0065 51.7916 10.376 51.7916 10.8128C51.7916 11.2369 51.8856 11.6006 52.0726 11.9038C52.2996 12.2704 52.6156 12.4537 53.0236 12.4537C53.4236 12.4537 53.7376 12.2675 53.9636 11.8941C54.1576 11.585 54.2546 11.2184 54.2546 10.7943Z" fill="white"/>
<path d="M63.1991 8.50098L61.7241 13.0971H60.7641L60.1531 11.1013C59.9981 10.6031 59.8721 10.1078 59.7741 9.61638H59.7551C59.6641 10.1214 59.5381 10.6158 59.3761 11.1013L58.7271 13.0971H57.7561L56.3691 8.50098H57.4461L57.9791 10.686C58.1081 11.2027 58.2141 11.6951 58.2991 12.1611H58.3181C58.3961 11.777 58.5251 11.2875 58.7071 10.6957L59.3761 8.50195H60.2301L60.8711 10.6489C61.0261 11.1725 61.1521 11.6766 61.2491 12.1621H61.2781C61.3491 11.6892 61.4561 11.1852 61.5981 10.6489L62.1701 8.50195H63.1991V8.50098Z" fill="white"/>
<path d="M68.63 13.0972H67.582V10.4647C67.582 9.65352 67.266 9.24792 66.632 9.24792C66.321 9.24792 66.07 9.35907 65.875 9.58234C65.682 9.80562 65.584 10.0689 65.584 10.3701V13.0962H64.536V9.81439C64.536 9.41074 64.523 8.97297 64.498 8.49912H65.419L65.468 9.21769H65.497C65.619 8.99442 65.801 8.81014 66.04 8.66292C66.324 8.49132 66.642 8.40454 66.99 8.40454C67.43 8.40454 67.796 8.54299 68.087 8.82087C68.449 9.16114 68.63 9.66912 68.63 10.3438V13.0972Z" fill="white"/>
<path d="M71.5196 13.0972H70.4727V6.39209H71.5196V13.0972Z" fill="white"/>
<path d="M77.6893 10.7611C77.6893 11.468 77.4823 12.0471 77.0683 12.5015C76.6343 12.9685 76.0583 13.2015 75.3413 13.2015C74.6483 13.2015 74.0973 12.9783 73.6873 12.5298C73.2773 12.0822 73.0723 11.5177 73.0723 10.8372C73.0723 10.1254 73.2833 9.5414 73.7073 9.08802C74.1313 8.63465 74.7013 8.40747 75.4183 8.40747C76.1113 8.40747 76.6663 8.63075 77.0883 9.07827C77.4883 9.51312 77.6893 10.0747 77.6893 10.7611ZM76.6013 10.7943C76.6013 10.3701 76.5073 10.0065 76.3203 9.70324C76.1013 9.33665 75.7873 9.15334 75.3813 9.15334C74.9593 9.15334 74.6393 9.33665 74.4203 9.70324C74.2323 10.0065 74.1393 10.376 74.1393 10.8128C74.1393 11.2369 74.2333 11.6006 74.4203 11.9038C74.6473 12.2704 74.9633 12.4537 75.3713 12.4537C75.7713 12.4537 76.0843 12.2675 76.3103 11.8941C76.5053 11.585 76.6013 11.2184 76.6013 10.7943Z" fill="white"/>
<path d="M82.7626 13.0972H81.8216L81.7436 12.5678H81.7146C81.3926 12.99 80.9336 13.2015 80.3376 13.2015C79.8926 13.2015 79.5326 13.0621 79.2616 12.7852C79.0156 12.5337 78.8926 12.2207 78.8926 11.8492C78.8926 11.2876 79.1326 10.8596 79.6156 10.5632C80.0976 10.2668 80.7756 10.1215 81.6486 10.1283V10.0425C81.6486 9.43707 81.3226 9.13482 80.6696 9.13482C80.2046 9.13482 79.7946 9.2489 79.4406 9.4751L79.2276 8.8043C79.6656 8.54007 80.2066 8.40747 80.8446 8.40747C82.0766 8.40747 82.6946 9.04122 82.6946 10.3087V12.0013C82.6946 12.4605 82.7176 12.8262 82.7626 13.0972ZM81.6746 11.5177V10.8089C80.5186 10.7894 79.9406 11.0985 79.9406 11.7351C79.9406 11.975 80.0066 12.1544 80.1416 12.2743C80.2766 12.3942 80.4486 12.4537 80.6536 12.4537C80.8836 12.4537 81.0986 12.3825 81.2946 12.2412C81.4916 12.0988 81.6126 11.9184 81.6576 11.6971C81.6686 11.6474 81.6746 11.5869 81.6746 11.5177Z" fill="white"/>
<path d="M88.7187 13.0972H87.7887L87.7397 12.3591H87.7107C87.4137 12.9207 86.9077 13.2015 86.1967 13.2015C85.6287 13.2015 85.1557 12.9841 84.7807 12.5492C84.4057 12.1144 84.2188 11.5498 84.2188 10.8566C84.2188 10.1127 84.4217 9.51014 84.8297 9.04994C85.2247 8.62094 85.7087 8.40644 86.2847 8.40644C86.9177 8.40644 87.3607 8.61411 87.6127 9.03044H87.6327V6.39209H88.6817V11.8589C88.6817 12.3064 88.6937 12.7189 88.7187 13.0972ZM87.6327 11.1589V10.3925C87.6327 10.2599 87.6227 10.1527 87.6037 10.0708C87.5447 9.82506 87.4177 9.61836 87.2247 9.45164C87.0297 9.28491 86.7947 9.20106 86.5237 9.20106C86.1327 9.20106 85.8267 9.35219 85.6017 9.65541C85.3787 9.95864 85.2657 10.3457 85.2657 10.8186C85.2657 11.2729 85.3727 11.6415 85.5877 11.9252C85.8147 12.2275 86.1207 12.3786 86.5037 12.3786C86.8477 12.3786 87.1227 12.2528 87.3317 12.0003C87.5337 11.7673 87.6327 11.4865 87.6327 11.1589Z" fill="white"/>
<path d="M97.6815 10.7611C97.6815 11.468 97.4744 12.0471 97.0605 12.5015C96.6265 12.9685 96.0525 13.2015 95.3335 13.2015C94.6425 13.2015 94.0915 12.9783 93.6795 12.5298C93.2695 12.0822 93.0645 11.5177 93.0645 10.8372C93.0645 10.1254 93.2755 9.5414 93.6995 9.08802C94.1235 8.63465 94.6935 8.40747 95.4124 8.40747C96.1034 8.40747 96.6605 8.63075 97.0805 9.07827C97.4805 9.51312 97.6815 10.0747 97.6815 10.7611ZM96.5955 10.7943C96.5955 10.3701 96.5014 10.0065 96.3144 9.70324C96.0934 9.33665 95.7815 9.15334 95.3735 9.15334C94.9535 9.15334 94.6335 9.33665 94.4125 9.70324C94.2245 10.0065 94.1315 10.376 94.1315 10.8128C94.1315 11.2369 94.2255 11.6006 94.4125 11.9038C94.6395 12.2704 94.9555 12.4537 95.3635 12.4537C95.7635 12.4537 96.0785 12.2675 96.3045 11.8941C96.4975 11.585 96.5955 11.2184 96.5955 10.7943Z" fill="white"/>
<path d="M103.315 13.0972H102.268V10.4647C102.268 9.65352 101.952 9.24792 101.317 9.24792C101.006 9.24792 100.755 9.35907 100.561 9.58234C100.367 9.80562 100.27 10.0689 100.27 10.3701V13.0962H99.2206V9.81439C99.2206 9.41074 99.2086 8.97297 99.1836 8.49912H100.104L100.153 9.21769H100.182C100.305 8.99442 100.487 8.81014 100.725 8.66292C101.01 8.49132 101.327 8.40454 101.676 8.40454C102.115 8.40454 102.481 8.54299 102.772 8.82087C103.135 9.16114 103.315 9.66912 103.315 10.3438V13.0972Z" fill="white"/>
<path d="M110.369 9.26647H109.215V11.4992C109.215 12.0667 109.42 12.3504 109.826 12.3504C110.014 12.3504 110.17 12.3348 110.293 12.3026L110.32 13.0777C110.113 13.1538 109.841 13.1918 109.506 13.1918C109.092 13.1918 108.77 13.069 108.537 12.8233C108.303 12.5776 108.187 12.1642 108.187 11.584V9.26647H107.498V8.5011H108.187V7.6587L109.214 7.35645V8.50012H110.368V9.26647H110.369Z" fill="white"/>
<path d="M115.916 13.0972H114.867V10.4842C114.867 9.66029 114.551 9.24786 113.918 9.24786C113.432 9.24786 113.1 9.48674 112.918 9.96449C112.887 10.0649 112.869 10.1878 112.869 10.3321V13.0962H111.822V6.39209H112.869V9.16206H112.889C113.219 8.65799 113.692 8.40644 114.305 8.40644C114.739 8.40644 115.098 8.54489 115.383 8.82276C115.738 9.16889 115.916 9.68369 115.916 10.3642V13.0972Z" fill="white"/>
<path d="M121.642 10.5819C121.642 10.7652 121.628 10.9193 121.603 11.0451H118.46C118.474 11.4994 118.624 11.8456 118.915 12.0854C119.181 12.2999 119.524 12.4072 119.944 12.4072C120.409 12.4072 120.833 12.335 121.215 12.1897L121.379 12.8995C120.932 13.0887 120.406 13.1832 119.797 13.1832C119.067 13.1832 118.492 12.9736 118.076 12.5544C117.658 12.1351 117.451 11.5726 117.451 10.8667C117.451 10.1734 117.644 9.59623 118.033 9.13603C118.439 8.64463 118.988 8.39893 119.681 8.39893C120.359 8.39893 120.874 8.64463 121.222 9.13603C121.503 9.52603 121.642 10.0086 121.642 10.5819ZM120.642 10.3177C120.65 10.0145 120.581 9.7532 120.439 9.53285C120.257 9.24913 119.98 9.10678 119.605 9.10678C119.263 9.10678 118.984 9.24523 118.771 9.5231C118.597 9.74443 118.494 10.0086 118.46 10.3177H120.642Z" fill="white"/>
</svg>
