<svg width="120" height="120" viewBox="0 0 160 136" fill="none" xmlns="http://www.w3.org/2000/svg">
<g filter="url(#filter0_d_888_3317)">
<path d="M121.085 71.8195C118.475 68.5539 115.14 66.4373 111.076 65.4683C112.359 63.531 112.998 61.3746 112.998 58.9997C112.998 55.687 111.826 52.8592 109.483 50.5152C107.14 48.172 104.312 46.9999 100.999 46.9999C98.03 46.9999 95.4365 47.9687 93.2183 49.9064C91.3753 45.4062 88.4289 41.797 84.3825 39.0786C80.3361 36.3594 75.875 35 70.9994 35C64.3749 35 58.7183 37.3443 54.0308 42.0319C49.3429 46.7183 46.9997 52.3752 46.9997 59.0002C46.9997 59.4064 47.0311 60.0784 47.0934 61.0156C43.4061 62.7344 40.4689 65.3124 38.2808 68.7495C36.0936 72.1876 35 75.9369 35 80.0002C35 85.7817 37.0551 90.726 41.164 94.8353C45.2732 98.9459 50.2186 101 55.9998 101H107.001C111.968 101 116.21 99.2415 119.727 95.7265C123.242 92.2115 125 87.9696 125 82.9998C125 78.8123 123.695 75.0861 121.085 71.8195ZM94.5314 73.6242L78.078 90.0786C77.797 90.3589 77.4375 90.4999 76.9998 90.4999C76.5624 90.4999 76.2028 90.3589 75.9216 90.0786L59.422 73.5781C59.1408 73.2972 59.0004 72.9376 59.0004 72.4999C59.0004 72.0937 59.1482 71.742 59.445 71.4454C59.7425 71.1485 60.0933 71.0003 60.4995 71.0003H70.9996V54.5005C70.9996 54.0943 71.1482 53.7426 71.4449 53.4453C71.7419 53.149 72.0932 53.0007 72.4994 53.0007H81.5003C81.9072 53.0007 82.257 53.1485 82.5555 53.4453C82.8517 53.7426 83 54.0943 83 54.5005V71.0003H93.5C93.9376 71.0003 94.2971 71.1406 94.5775 71.4215C94.859 71.7025 94.9982 72.062 94.9982 72.4997C94.9982 72.8764 94.8432 73.2499 94.5314 73.6242Z" fill="#DB4403"/>
</g>
<defs>
<filter id="filter0_d_888_3317" x="0" y="0" width="160" height="136" filterUnits="userSpaceOnUse" color-interpolation-filters="sRGB">
<feFlood flood-opacity="0" result="BackgroundImageFix"/>
<feColorMatrix in="SourceAlpha" type="matrix" values="0 0 0 0 0 0 0 0 0 0 0 0 0 0 0 0 0 0 127 0" result="hardAlpha"/>
<feOffset/>
<feGaussianBlur stdDeviation="17.5"/>
<feComposite in2="hardAlpha" operator="out"/>
<feColorMatrix type="matrix" values="0 0 0 0 1 0 0 0 0 0.796078 0 0 0 0 0.709804 0 0 0 1 0"/>
<feBlend mode="normal" in2="BackgroundImageFix" result="effect1_dropShadow_888_3317"/>
<feBlend mode="normal" in="SourceGraphic" in2="effect1_dropShadow_888_3317" result="shape"/>
</filter>
</defs>
</svg>
