<svg width="49" height="66" viewBox="0 0 59 76" fill="none" xmlns="http://www.w3.org/2000/svg">
<path d="M42.4604 17.5386H57.0011L40.1934 1.46167V15.3702C40.1934 16.5666 41.2096 17.5386 42.4604 17.5386Z" fill="white"/>
<path d="M6.74556 76H51.716C55.4356 76 58.4615 73.0036 58.4615 69.3203V22.2656H42.7219C39.0022 22.2656 35.9763 19.2693 35.9763 15.5859V0H6.74556C3.02591 0 0 2.99636 0 6.67969V69.3203C0 73.0036 3.02591 76 6.74556 76ZM20.2367 35.7734H42.7219C43.9647 35.7734 44.9704 36.7693 44.9704 38C44.9704 39.2307 43.9647 40.2266 42.7219 40.2266H20.2367C18.9939 40.2266 17.9882 39.2307 17.9882 38C17.9882 36.7693 18.9939 35.7734 20.2367 35.7734ZM20.2367 44.6797H42.7219C43.9647 44.6797 44.9704 45.6756 44.9704 46.9062C44.9704 48.1369 43.9647 49.1328 42.7219 49.1328H20.2367C18.9939 49.1328 17.9882 48.1369 17.9882 46.9062C17.9882 45.6756 18.9939 44.6797 20.2367 44.6797ZM20.2367 53.5859H42.7219C43.9647 53.5859 44.9704 54.5818 44.9704 55.8125C44.9704 57.0432 43.9647 58.0391 42.7219 58.0391H20.2367C18.9939 58.0391 17.9882 57.0432 17.9882 55.8125C17.9882 54.5818 18.9939 53.5859 20.2367 53.5859ZM11.2426 35.7734C12.4844 35.7734 13.4911 36.7703 13.4911 38C13.4911 39.2297 12.4844 40.2266 11.2426 40.2266C10.0008 40.2266 8.99408 39.2297 8.99408 38C8.99408 36.7703 10.0008 35.7734 11.2426 35.7734ZM11.2426 44.6797C12.4844 44.6797 13.4911 45.6766 13.4911 46.9062C13.4911 48.1359 12.4844 49.1328 11.2426 49.1328C10.0008 49.1328 8.99408 48.1359 8.99408 46.9062C8.99408 45.6766 10.0008 44.6797 11.2426 44.6797ZM11.2426 53.5859C12.4844 53.5859 13.4911 54.5828 13.4911 55.8125C13.4911 57.0422 12.4844 58.0391 11.2426 58.0391C10.0008 58.0391 8.99408 57.0422 8.99408 55.8125C8.99408 54.5828 10.0008 53.5859 11.2426 53.5859Z" fill="white"/>
</svg>
