<svg width="136" height="39" viewBox="0 0 136 39" fill="none" xmlns="http://www.w3.org/2000/svg">
<path d="M130.509 39H5.68063C2.93566 39 0.6875 36.805 0.6875 34.125V4.875C0.6875 2.19497 2.93566 -3.00958e-07 5.68063 -3.00958e-07H130.509C133.254 -3.00958e-07 135.502 2.19497 135.502 4.875V34.125C135.502 36.805 133.254 39 130.509 39Z" fill="#232323"/>
<path d="M130.509 0.781216C132.821 0.781216 134.702 2.61788 134.702 4.875V34.125C134.702 36.3821 132.821 38.2188 130.509 38.2188H5.68063C3.36881 38.2188 1.48765 36.3821 1.48765 34.125V4.875C1.48765 2.61788 3.36881 0.781216 5.68063 0.781216H130.509ZM130.509 -3.00958e-07H5.68063C2.93566 -3.00958e-07 0.6875 2.19497 0.6875 4.875V34.125C0.6875 36.805 2.93566 39 5.68063 39H130.509C133.254 39 135.502 36.805 135.502 34.125V4.875C135.502 2.19497 133.254 -3.00958e-07 130.509 -3.00958e-07Z" fill="#A6A6A6"/>
<path d="M48.0371 9.98764C48.0371 10.8018 47.7875 11.4538 47.2957 11.9401C46.7302 12.5165 45.9937 12.8066 45.0912 12.8066C44.2286 12.8066 43.4921 12.5117 42.888 11.9303C42.2825 11.3405 41.9805 10.6165 41.9805 9.74998C41.9805 8.88345 42.2825 8.15952 42.888 7.57452C43.4921 6.9883 44.2286 6.69336 45.0912 6.69336C45.5206 6.69336 45.93 6.77989 46.3207 6.94077C46.7102 7.10286 47.0273 7.32223 47.257 7.5928L46.7352 8.10711C46.3345 7.6452 45.789 7.4173 45.0912 7.4173C44.4621 7.4173 43.9166 7.6318 43.4534 8.06445C42.9953 8.49833 42.7656 9.06017 42.7656 9.74998C42.7656 10.4398 42.9953 11.0065 43.4534 11.4404C43.9166 11.8682 44.4621 12.0875 45.0912 12.0875C45.759 12.0875 46.3207 11.8682 46.7639 11.4355C47.056 11.1491 47.222 10.7542 47.2657 10.2497H45.0912V9.54523H47.9922C48.0271 9.69758 48.0371 9.84505 48.0371 9.98764Z" fill="white" stroke="white" stroke-width="0.16" stroke-miterlimit="10"/>
<path d="M52.641 7.54524H49.916V9.39774H52.3726V10.1022H49.916V11.9547H52.641V12.6725H49.1445V6.82739H52.641V7.54524Z" fill="white" stroke="white" stroke-width="0.16" stroke-miterlimit="10"/>
<path d="M55.8902 12.6728H55.1187V7.54548H53.4473V6.82764H57.5628V7.54548H55.8902V12.6728Z" fill="white" stroke="white" stroke-width="0.16" stroke-miterlimit="10"/>
<path d="M60.5391 12.6728V6.82764H61.3093V12.6728H60.5391Z" fill="white" stroke="white" stroke-width="0.16" stroke-miterlimit="10"/>
<path d="M64.7261 12.6728H63.9609V7.54548H62.2832V6.82764H66.4038V7.54548H64.7261V12.6728Z" fill="white" stroke="white" stroke-width="0.16" stroke-miterlimit="10"/>
<path d="M74.1945 11.9206C73.604 12.5117 72.8725 12.8066 72 12.8066C71.1224 12.8066 70.3909 12.5117 69.8005 11.9206C69.2113 11.3307 68.918 10.6068 68.918 9.74998C68.918 8.8932 69.2113 8.16927 69.8005 7.57939C70.3909 6.9883 71.1224 6.69336 72 6.69336C72.8675 6.69336 73.599 6.9883 74.1895 7.58427C74.7837 8.17902 75.077 8.89808 75.077 9.74998C75.077 10.6068 74.7836 11.3307 74.1945 11.9206ZM70.371 11.4306C70.8154 11.8682 71.3559 12.0875 72 12.0875C72.6391 12.0875 73.1846 11.8682 73.624 11.4306C74.0671 10.9931 74.2918 10.4313 74.2918 9.74998C74.2918 9.0687 74.0671 8.50686 73.624 8.06933C73.1846 7.6318 72.6391 7.41242 72 7.41242C71.3559 7.41242 70.8154 7.6318 70.371 8.06933C69.9278 8.50686 69.7031 9.0687 69.7031 9.74998C69.7031 10.4313 69.9278 10.9931 70.371 11.4306Z" fill="white" stroke="white" stroke-width="0.16" stroke-miterlimit="10"/>
<path d="M76.1602 12.6725V6.82739H77.0964L80.0074 11.3733H80.0411L80.0074 10.2496V6.82739H80.7776V12.6725H79.9737L76.9254 7.90233H76.8916L76.9254 9.03089V12.6725H76.1602Z" fill="white" stroke="white" stroke-width="0.16" stroke-miterlimit="10"/>
<path d="M68.7277 21.2085C66.3821 21.2085 64.466 22.9513 64.466 25.3559C64.466 27.741 66.3821 29.5021 68.7277 29.5021C71.0782 29.5021 72.9943 27.741 72.9943 25.3559C72.9943 22.9513 71.0782 21.2085 68.7277 21.2085ZM68.7277 27.8689C67.4407 27.8689 66.3335 26.8318 66.3335 25.3559C66.3335 23.8605 67.4407 22.8416 68.7277 22.8416C70.0146 22.8416 71.1269 23.8605 71.1269 25.3559C71.1269 26.8318 70.0146 27.8689 68.7277 27.8689ZM59.4292 21.2085C57.0787 21.2085 55.1676 22.9513 55.1676 25.3559C55.1676 27.741 57.0787 29.5021 59.4292 29.5021C61.7785 29.5021 63.6909 27.741 63.6909 25.3559C63.6909 22.9513 61.7785 21.2085 59.4292 21.2085ZM59.4292 27.8689C58.141 27.8689 57.03 26.8318 57.03 25.3559C57.03 23.8605 58.141 22.8416 59.4292 22.8416C60.7162 22.8416 61.8234 23.8605 61.8234 25.3559C61.8234 26.8318 60.7162 27.8689 59.4292 27.8689ZM48.3645 22.4796V24.2419H52.6748C52.5487 25.2267 52.2117 25.9506 51.6949 26.4552C51.0657 27.0646 50.0858 27.741 48.3645 27.741C45.7119 27.741 43.6347 25.6508 43.6347 23.061C43.6347 20.4711 45.7119 18.381 48.3645 18.381C49.7987 18.381 50.8423 18.9282 51.6125 19.6375L52.8845 18.3956C51.8072 17.3913 50.3742 16.6199 48.3645 16.6199C44.727 16.6199 41.6699 19.5095 41.6699 23.061C41.6699 26.6124 44.727 29.5021 48.3645 29.5021C50.3305 29.5021 51.8072 28.8732 52.9681 27.6934C54.1577 26.532 54.5285 24.8988 54.5285 23.5802C54.5285 23.1707 54.4935 22.7941 54.4311 22.4796H48.3645ZM93.6097 23.8458C93.2589 22.9184 92.1766 21.2085 89.9722 21.2085C87.7877 21.2085 85.9689 22.8891 85.9689 25.3559C85.9689 27.6788 87.7689 29.5021 90.1819 29.5021C92.1329 29.5021 93.2589 28.3406 93.722 27.6642L92.274 26.7221C91.7909 27.4119 91.1331 27.8689 90.1819 27.8689C89.2369 27.8689 88.5591 27.446 88.1247 26.6124L93.8056 24.3175L93.6097 23.8458ZM87.8176 25.2267C87.769 23.6277 89.0896 22.8087 90.0358 22.8087C90.7773 22.8087 91.4064 23.1707 91.6162 23.6886L87.8176 25.2267ZM83.2002 29.2498H85.0677V17.0623H83.2002V29.2498ZM80.142 22.1323H80.0795C79.6601 21.6472 78.86 21.2085 77.8464 21.2085C75.7193 21.2085 73.7745 23.0317 73.7745 25.3693C73.7745 27.6934 75.7193 29.5021 77.8464 29.5021C78.86 29.5021 79.6601 29.0597 80.0795 28.56H80.142V29.1547C80.142 30.7403 79.2744 31.5922 77.8751 31.5922C76.7341 31.5922 76.0264 30.7878 75.7343 30.1114L74.1103 30.7732C74.5784 31.8725 75.8179 33.2253 77.8751 33.2253C80.0646 33.2253 81.912 31.9676 81.912 28.9073V21.4608H80.142V22.1323ZM78.0061 27.8689C76.7192 27.8689 75.6419 26.8172 75.6419 25.3693C75.6419 23.908 76.7192 22.8416 78.0061 22.8416C79.2744 22.8416 80.2743 23.908 80.2743 25.3693C80.2743 26.8172 79.2744 27.8689 78.0061 27.8689ZM102.353 17.0623H97.8863V29.2498H99.7487V24.6319H102.353C104.421 24.6319 106.449 23.1707 106.449 20.8465C106.449 18.5236 104.416 17.0623 102.353 17.0623ZM102.401 22.9367H99.7487V18.7576H102.401C103.792 18.7576 104.586 19.8849 104.586 20.8465C104.586 21.7898 103.792 22.9367 102.401 22.9367ZM113.914 21.1853C112.569 21.1853 111.169 21.7654 110.594 23.0512L112.247 23.7276C112.602 23.0512 113.256 22.8318 113.948 22.8318C114.914 22.8318 115.894 23.3986 115.909 24.3992V24.5271C115.572 24.337 114.85 24.0555 113.963 24.0555C112.183 24.0555 110.369 25.0122 110.369 26.7977C110.369 28.4308 111.827 29.4826 113.466 29.4826C114.719 29.4826 115.411 28.9305 115.845 28.2882H115.909V29.2303H117.708V24.5552C117.708 22.3943 116.055 21.1853 113.914 21.1853ZM113.69 27.8641C113.08 27.8641 112.232 27.5691 112.232 26.8318C112.232 25.8885 113.29 25.5265 114.206 25.5265C115.026 25.5265 115.411 25.7032 115.909 25.936C115.763 27.0646 114.768 27.8641 113.69 27.8641ZM124.261 21.4522L122.12 26.7355H122.057L119.844 21.4522H117.835L121.16 28.8354L119.263 32.9438H121.209L126.333 21.4522H124.261ZM107.473 29.2498H109.34V17.0623H107.473V29.2498Z" fill="white"/>
<path d="M11.1096 7.35008C10.8162 7.6499 10.6465 8.11668 10.6465 8.72118V30.2833C10.6465 30.8878 10.8162 31.3546 11.1096 31.6544L11.182 31.7202L23.5575 19.6424V19.3572L11.182 7.2794L11.1096 7.35008Z" fill="url(#paint0_linear_1183_4023)"/>
<path d="M27.6772 23.6702L23.5566 19.6422V19.357L27.6822 15.329L27.7746 15.3814L32.6604 18.0956C34.0547 18.8659 34.0547 20.1334 32.6604 20.9085L27.7746 23.6178L27.6772 23.6702Z" fill="url(#paint1_linear_1183_4023)"/>
<path d="M27.7752 23.6179L23.5572 19.4998L11.1094 31.6544C11.5725 32.1297 12.3277 32.1869 13.1865 31.7116L27.7752 23.6179Z" fill="url(#paint2_linear_1183_4023)"/>
<path d="M27.7752 15.3818L13.1865 7.28813C12.3277 6.81769 11.5725 6.87497 11.1094 7.35028L23.5572 19.5L27.7752 15.3818Z" fill="url(#paint3_linear_1183_4023)"/>
<defs>
<linearGradient id="paint0_linear_1183_4023" x1="22.4587" y1="30.5079" x2="6.10052" y2="13.7533" gradientUnits="userSpaceOnUse">
<stop stop-color="#00A0FF"/>
<stop offset="0.0066" stop-color="#00A1FF"/>
<stop offset="0.2601" stop-color="#00BEFF"/>
<stop offset="0.5122" stop-color="#00D2FF"/>
<stop offset="0.7604" stop-color="#00DFFF"/>
<stop offset="1" stop-color="#00E3FF"/>
</linearGradient>
<linearGradient id="paint1_linear_1183_4023" x1="34.476" y1="19.4982" x2="10.3124" y2="19.4982" gradientUnits="userSpaceOnUse">
<stop stop-color="#FFE000"/>
<stop offset="0.4087" stop-color="#FFBD00"/>
<stop offset="0.7754" stop-color="#FFA500"/>
<stop offset="1" stop-color="#FF9C00"/>
</linearGradient>
<linearGradient id="paint2_linear_1183_4023" x1="25.4816" y1="17.2611" x2="3.29861" y2="-5.45944" gradientUnits="userSpaceOnUse">
<stop stop-color="#FF3A44"/>
<stop offset="1" stop-color="#C31162"/>
</linearGradient>
<linearGradient id="paint3_linear_1183_4023" x1="7.97599" y1="38.8282" x2="17.8817" y2="28.6826" gradientUnits="userSpaceOnUse">
<stop stop-color="#32A071"/>
<stop offset="0.0685" stop-color="#2DA771"/>
<stop offset="0.4762" stop-color="#15CF74"/>
<stop offset="0.8009" stop-color="#06E775"/>
<stop offset="1" stop-color="#00F076"/>
</linearGradient>
</defs>
</svg>
