<svg width="120" height="120" viewBox="0 0 135 151" fill="none" xmlns="http://www.w3.org/2000/svg">
<g filter="url(#filter0_d_888_3343)">
<path d="M53.9 79.55H62C61.9979 80.2654 61.7128 80.951 61.2069 81.4569C60.701 81.9628 60.0154 82.2479 59.3 82.25H56.6C55.8846 82.2479 55.199 81.9628 54.6931 81.4569C54.1872 80.951 53.9021 80.2654 53.9 79.55ZM99.8 67.4C99.8 92.0969 69.4929 114.782 68.2022 115.736C67.97 115.907 67.6888 116 67.4 116C67.1112 116 66.83 115.907 66.5978 115.736C65.3071 114.782 35 92.0969 35 67.4C35 58.807 38.4136 50.5659 44.4897 44.4897C50.5659 38.4136 58.807 35 67.4 35C75.993 35 84.2341 38.4136 90.3103 44.4897C96.3864 50.5659 99.8 58.807 99.8 67.4ZM91.7 67.4C91.7 62.5939 90.2748 57.8958 87.6047 53.8996C84.9346 49.9035 81.1395 46.7889 76.6992 44.9497C72.259 43.1105 67.373 42.6293 62.6593 43.5669C57.9456 44.5045 53.6157 46.8189 50.2173 50.2173C46.8189 53.6157 44.5045 57.9456 43.5669 62.6593C42.6293 67.373 43.1105 72.259 44.9497 76.6992C46.7889 81.1395 49.9035 84.9346 53.8996 87.6047C57.8958 90.2748 62.5939 91.7 67.4 91.7C73.8425 91.6927 80.0191 89.1302 84.5746 84.5746C89.1302 80.0191 91.6927 73.8425 91.7 67.4ZM75.5 82.25H78.2C78.9154 82.2479 79.601 81.9628 80.1069 81.4569C80.6128 80.951 80.8979 80.2654 80.9 79.55H72.8C72.8021 80.2654 73.0872 80.951 73.5931 81.4569C74.099 81.9628 74.7846 82.2479 75.5 82.25ZM83.6 67.4V75.5C83.5989 75.8577 83.4564 76.2005 83.2034 76.4534C82.9505 76.7064 82.6077 76.8489 82.25 76.85H52.55C52.1923 76.8489 51.8495 76.7064 51.5966 76.4534C51.3436 76.2005 51.2011 75.8577 51.2 75.5V67.4C51.2046 66.5204 51.4953 65.6663 52.0281 64.9665C52.561 64.2667 53.3071 63.7593 54.1537 63.5209L56.1293 55.6178C56.3474 54.7411 56.8527 53.9626 57.5648 53.4066C58.2768 52.8505 59.1546 52.549 60.0581 52.55H74.742C75.6454 52.549 76.5232 52.8505 77.2353 53.4066C77.9473 53.9626 78.4527 54.7411 78.6707 55.6178L80.6464 63.5209C81.493 63.7593 82.239 64.2667 82.7719 64.9665C83.3047 65.6663 83.5954 66.5205 83.6 67.4ZM56.9785 63.35H77.8215L76.0524 56.273C75.9795 55.9807 75.8109 55.7212 75.5734 55.5358C75.3359 55.3504 75.0432 55.2498 74.742 55.25H60.058C59.7567 55.2498 59.464 55.3504 59.2265 55.5358C58.9891 55.7212 58.8204 55.9807 58.7476 56.273L56.9785 63.35ZM62 70.1C61.9989 69.7423 61.8564 69.3995 61.6034 69.1466C61.3505 68.8936 61.0077 68.7511 60.65 68.75H57.95C57.592 68.75 57.2486 68.8922 56.9954 69.1454C56.7422 69.3986 56.6 69.742 56.6 70.1C56.6 70.458 56.7422 70.8014 56.9954 71.0546C57.2486 71.3078 57.592 71.45 57.95 71.45H60.65C61.0077 71.4489 61.3505 71.3064 61.6034 71.0534C61.8564 70.8005 61.9989 70.4577 62 70.1ZM78.2 70.1C78.1989 69.7423 78.0564 69.3995 77.8034 69.1466C77.5505 68.8936 77.2077 68.7511 76.85 68.75H74.15C73.792 68.75 73.4486 68.8922 73.1954 69.1454C72.9422 69.3986 72.8 69.742 72.8 70.1C72.8 70.458 72.9422 70.8014 73.1954 71.0546C73.4486 71.3078 73.792 71.45 74.15 71.45H76.85C77.2077 71.4489 77.5505 71.3064 77.8034 71.0534C78.0564 70.8005 78.1989 70.4577 78.2 70.1Z" fill="#DB4403"/>
</g>
<defs>
<filter id="filter0_d_888_3343" x="0" y="0" width="134.801" height="151" filterUnits="userSpaceOnUse" color-interpolation-filters="sRGB">
<feFlood flood-opacity="0" result="BackgroundImageFix"/>
<feColorMatrix in="SourceAlpha" type="matrix" values="0 0 0 0 0 0 0 0 0 0 0 0 0 0 0 0 0 0 127 0" result="hardAlpha"/>
<feOffset/>
<feGaussianBlur stdDeviation="17.5"/>
<feComposite in2="hardAlpha" operator="out"/>
<feColorMatrix type="matrix" values="0 0 0 0 1 0 0 0 0 0.796078 0 0 0 0 0.709804 0 0 0 1 0"/>
<feBlend mode="normal" in2="BackgroundImageFix" result="effect1_dropShadow_888_3343"/>
<feBlend mode="normal" in="SourceGraphic" in2="effect1_dropShadow_888_3343" result="shape"/>
</filter>
</defs>
</svg>
